<svg id="betteryoutube-logo-svg" xmlns="http://www.w3.org/2000/svg" viewBox="0 0 460 80" class="w-full h-full object-contain drop-shadow-sm"><g transform="translate(0, 10) scale(2.5)"><g><rect x="2" y="4" width="20" height="16" rx="4" fill="#FF0000"/><path d="M9.5,8 L12.5,8 C14,8 15,8.7 15,9.8 C15,10.6 14.5,11.2 13.8,11.4 C14.7,11.6 15.3,12.3 15.3,13.3 C15.3,14.7 14.2,16 12.5,16 L9.5,16 Z M11.5,9.5 L11.5,11 L12.5,11 C13,11 13.3,10.7 13.3,10.2 C13.3,9.7 13,9.5 12.5,9.5 Z M11.5,12.5 L11.5,14.5 L12.7,14.5 C13.3,14.5 13.6,14.2 13.6,13.5 C13.6,12.8 13.3,12.5 12.7,12.5 Z" fill="#0f0f0f"/></g></g><text x="76" y="56" font-family="system-ui, -apple-system, sans-serif" font-weight="900" font-size="48" fill="#ffffff" letter-spacing="-2.2">BetterYouTube</text></svg>